<?xml version="1.0" encoding="utf-8"?>
<!-- Svg Vector Icons : http://www.onlinewebfonts.com/icon -->
<!DOCTYPE svg PUBLIC "-//W3C//DTD SVG 1.1//EN" "http://www.w3.org/Graphics/SVG/1.1/DTD/svg11.dtd">
<svg version="1.1" xmlns="http://www.w3.org/2000/svg" xmlns:xlink="http://www.w3.org/1999/xlink" x="0px" y="0px" viewBox="0 0 256 256" enable-background="new 0 0 256 256" xml:space="preserve">
<metadata> Svg Vector Icons : http://www.onlinewebfonts.com/icon </metadata>
<g><g><path stroke-width="3" fill-opacity="0" stroke="#000000"  d="M188,80.8H68c-3.8,0-7,3.1-7,6.9v23.6c0,3.8,3.1,6.9,7,6.9h120c3.8,0,7-3.1,7-6.9V87.8C194.9,83.9,191.8,80.8,188,80.8z M73.6,97.3c-2.4,0-4.3-1.9-4.3-4.3c0-2.4,1.9-4.3,4.3-4.3c2.4,0,4.3,1.9,4.3,4.3C77.9,95.4,76,97.3,73.6,97.3z M176.6,109.7h-30.3V99.6h30.3V109.7L176.6,109.7z"/><path stroke-width="3" fill-opacity="0" stroke="#000000"  d="M188,122.2H68c-3.8,0-7,3.1-7,7v23.6c0,3.8,3.1,6.9,7,6.9h120c3.8,0,7-3.1,7-6.9v-23.6C194.9,125.3,191.8,122.2,188,122.2z M73.6,138.7c-2.4,0-4.3-1.9-4.3-4.3c0-2.4,1.9-4.3,4.3-4.3c2.4,0,4.3,1.9,4.3,4.3C77.9,136.8,76,138.7,73.6,138.7z M176.6,151.1h-30.3V141h30.3V151.1L176.6,151.1z"/><path stroke-width="3" fill-opacity="0" stroke="#000000"  d="M188,163.6H68c-3.8,0-7,3.1-7,6.9v23.6c0,3.8,3.1,7,7,7h120c3.8,0,7-3.1,7-7v-23.6C194.9,166.7,191.8,163.6,188,163.6z M73.6,180.1c-2.4,0-4.3-1.9-4.3-4.3s1.9-4.3,4.3-4.3c2.4,0,4.3,1.9,4.3,4.3S76,180.1,73.6,180.1z M176.6,192.4h-30.3v-10.1h30.3V192.4L176.6,192.4z"/><path stroke-width="3" fill-opacity="0" stroke="#000000"  d="M148.7,223.8h-12.8v-18.6H120v18.6h-12.8v4.9H62.5v15.9h44.8v4.9h41.4v-4.9h44.8v-15.9h-44.8V223.8z"/><path stroke-width="3" fill-opacity="0" stroke="#000000"  d="M198.8,42.7c-1.7-0.1-3.3-1-4.3-2.4c-9.6-13-25-21-41.5-21c-1,0-2.1,0-3.1,0.1c-1.4,0.1-2.8-0.3-4-1.2c-10-7.6-22.1-11.6-34.7-11.6c-22.7,0-42.9,13.2-52.3,33.1c-0.9,1.8-2.6,3.1-4.6,3.4C29.3,46.5,10,68.1,10,94c0,24.8,17.5,45.5,40.9,50.4v-15.3c0-1.9,0.3-3.7,0.9-5.5c-12.5-4.1-21.5-15.8-21.5-29.7c0-17.2,14-31.2,31.3-31.2c0.9,0,1.7,0.1,2.6,0.1c5,0.4,9.5-2.8,10.7-7.7C79,38.6,94,26.9,111.2,26.9c9.9,0,19.2,3.8,26.2,10.7c2.4,2.4,5.8,3.4,9.2,2.7c2.1-0.4,4.3-0.7,6.4-0.7c12.1,0,22.8,6.8,28.1,17.7c1.9,3.8,5.9,6.1,10.2,5.7c1.1-0.1,2.1-0.1,3.1-0.1c17.2,0,31.3,14,31.3,31.2c0,13.8-9,25.6-21.5,29.7c0.6,1.7,0.9,3.5,0.9,5.5v15.3c23.3-4.9,40.9-25.7,40.9-50.4C246,67.1,225.2,44.9,198.8,42.7z"/></g></g>
</svg>