<?xml version="1.0" encoding="utf-8"?>
<!-- Svg Vector Icons : http://www.onlinewebfonts.com/icon -->
<!DOCTYPE svg PUBLIC "-//W3C//DTD SVG 1.1//EN" "http://www.w3.org/Graphics/SVG/1.1/DTD/svg11.dtd">
<svg version="1.1" xmlns="http://www.w3.org/2000/svg" xmlns:xlink="http://www.w3.org/1999/xlink" x="0px" y="0px" viewBox="0 0 256 256" enable-background="new 0 0 256 256" xml:space="preserve">
<metadata> Svg Vector Icons : http://www.onlinewebfonts.com/icon </metadata>
<g><g><g><path fill="#000000" d="M32.8,10.3c-3.9,1.2-7.7,4.4-9.8,8.4l-1.1,2l-0.1,22c-0.1,21.3-0.1,22.1,0.8,24.6c1.3,3.4,4.4,6.9,7.8,8.5L33,77h95.3h95.3l2.6-1.3c2.9-1.4,5.8-4.2,7.4-7.3l1.1-2V43.6V20.7l-1.2-2.3c-1.5-2.8-4.5-5.7-7.3-7.2l-2.1-1.1L129.1,10C76.8,10,33.5,10.1,32.8,10.3z M224.2,20.6l1.1,1v21.9v21.9l-1.2,1.1l-1.1,1.2h-94.7H33.7l-1.1-1.2l-1.2-1.1V43.7c0-21.2,0-21.7,1-22.9l0.9-1.2h95h94.9L224.2,20.6z"/><path fill="#000000" d="M161.1,42.9v10.4h4.6h4.6V42.9V32.5h-4.6h-4.6V42.9z"/><path fill="#000000" d="M192.5,42.9v10.4h4.6h4.6V42.9V32.5h-4.6h-4.6V42.9z"/><path fill="#000000" d="M31.5,96.5c-2.6,0.9-6.8,4.8-8.3,7.7l-1.2,2.4l-0.1,22c-0.1,21.7-0.1,22,0.9,24.7c1.2,3.2,4.6,6.8,8,8.5l2.3,1.2h95.3h95.3l2.3-1.2c3.4-1.7,6.8-5.3,8-8.5c1-2.7,1-3,0.9-24.7l-0.1-22l-1.2-2.3c-1.6-2.9-4.6-6-7.3-7.3l-2.1-1l-95.3-0.1C44.8,95.8,33.3,95.9,31.5,96.5z M222.5,105.4c2.9,0.8,2.8,0,2.8,23.9v21.8l-1.2,1.1l-1.1,1.2h-94.7H33.7l-1.1-1.2l-1.2-1.1v-21.9v-21.9l1.1-0.9c0.6-0.6,1.4-1.1,1.9-1.2C36.3,104.8,220.9,105,222.5,105.4z"/><path fill="#000000" d="M161.1,128.7v10.4h4.6h4.6v-10.4v-10.4h-4.6h-4.6V128.7z"/><path fill="#000000" d="M192.5,128.7v10.4h4.6h4.6v-10.4v-10.4h-4.6h-4.6V128.7z"/><path fill="#000000" d="M31.6,179.5c-3.9,1.2-7.3,4.2-9.5,8.2l-1.1,2v22.9v22.9l1.1,2.1c1.5,2.8,4.4,5.8,7.2,7.3l2.3,1.2h95.8h95.8l2.4-1.3c2.8-1.6,5.5-4.4,7.1-7.3l1.1-2l0.1-22c0.1-21.3,0.1-22.1-0.8-24.6c-1.3-3.4-4.4-6.9-7.8-8.5l-2.6-1.3l-94.6-0.1C51.2,178.9,33.1,179,31.6,179.5z M223.2,189.7l1.2,1.1v21.7c0,21.2,0,21.7-1,22.9l-0.9,1.2h-95H32.6l-1.1-1l-1.1-1v-22.1v-22.1l1.2-0.9l1.2-1h94.6h94.6L223.2,189.7z"/><path fill="#000000" d="M160.2,211.8v10.4h4.6h4.6v-10.4v-10.4h-4.6h-4.6V211.8z"/><path fill="#000000" d="M191.6,211.8v10.4h4.6h4.6v-10.4v-10.4h-4.6h-4.6V211.8z"/></g></g></g>
</svg>